<?xml version="1.0" encoding="utf-8"?>
<!-- Generator: Adobe Illustrator 23.0.6, SVG Export Plug-In . SVG Version: 6.00 Build 0)  -->
<svg version="1.1" xmlns="http://www.w3.org/2000/svg" xmlns:xlink="http://www.w3.org/1999/xlink" x="0px" y="0px"
	 viewBox="0 0 2564 2149" style="enable-background:new 0 0 2564 2149;" xml:space="preserve">
<style type="text/css">
	.st0{display:none;}
	.st1{display:inline;fill:none;stroke:#000000;stroke-width:30;stroke-miterlimit:10;}
	.st2{fill:#FC1E2C;stroke:#000000;stroke-width:15;stroke-miterlimit:10;}
	.st3{fill:#FEF2F4;stroke:#000000;stroke-width:15;stroke-miterlimit:10;}
	.st4{fill:#1962B1;stroke:#000000;stroke-width:15;stroke-miterlimit:10;}
	.st5{fill:#FEF2F4;}
</style>
<g id="Livello_2" class="st0">
	<rect x="445" y="518" class="st1" width="1674" height="1114"/>
</g>
<g id="Livello_3">
	<rect x="445" y="516.5" class="st2" width="1674" height="101.27"/>
	<rect x="445" y="617.77" class="st3" width="1674" height="101.27"/>
	<rect x="445" y="719.05" class="st2" width="1674" height="101.27"/>
	<rect x="445" y="820.32" class="st3" width="1674" height="101.27"/>
	<rect x="445" y="921.59" class="st2" width="1674" height="101.27"/>
	<rect x="445" y="1022.86" class="st3" width="1674" height="101.27"/>
	<rect x="445" y="1124.14" class="st2" width="1674" height="101.27"/>
	<rect x="445" y="1225.41" class="st3" width="1674" height="101.27"/>
	<rect x="445" y="1326.68" class="st2" width="1674" height="101.27"/>
	<rect x="445" y="1427.95" class="st3" width="1674" height="101.27"/>
	<rect x="445" y="1529.23" class="st2" width="1674" height="101.27"/>
</g>
<g id="Livello_5">
	<rect x="445.5" y="516.5" class="st4" width="836" height="506"/>
</g>
<g id="Livello_4">
	<polygon class="st5" points="863.42,577.07 884.61,620.01 932,626.9 897.71,660.32 905.8,707.52 863.42,685.24 821.03,707.52 
		829.12,660.32 794.83,626.9 842.22,620.01 	"/>
	<polygon class="st5" points="600.22,577.41 621.42,620.35 668.81,627.24 634.51,660.66 642.61,707.86 600.22,685.58 557.84,707.86 
		565.93,660.66 531.64,627.24 579.03,620.35 	"/>
	<polygon class="st5" points="1126.22,577.41 1147.42,620.35 1194.81,627.24 1160.51,660.66 1168.61,707.86 1126.22,685.58 
		1083.84,707.86 1091.93,660.66 1057.64,627.24 1105.03,620.35 	"/>
	<polygon class="st5" points="863.81,831.6 885,874.54 932.39,881.42 898.1,914.85 906.19,962.05 863.81,939.77 821.42,962.05 
		829.51,914.85 795.22,881.42 842.61,874.54 	"/>
	<polygon class="st5" points="600.61,831.93 621.81,874.88 669.2,881.76 634.9,915.19 643,962.39 600.61,940.1 558.23,962.39 
		566.32,915.19 532.03,881.76 579.42,874.88 	"/>
	<polygon class="st5" points="1126.61,831.93 1147.81,874.88 1195.2,881.76 1160.9,915.19 1169,962.39 1126.61,940.1 
		1084.23,962.39 1092.32,915.19 1058.03,881.76 1105.42,874.88 	"/>
	<polygon class="st5" points="732.21,718.6 753.4,761.54 800.79,768.42 766.5,801.85 774.6,849.05 732.21,826.76 689.82,849.05 
		697.92,801.85 663.63,768.42 711.02,761.54 	"/>
	<polygon class="st5" points="995.02,718.93 1016.21,761.88 1063.6,768.76 1029.31,802.19 1037.4,849.39 995.02,827.1 
		952.63,849.39 960.72,802.19 926.43,768.76 973.82,761.88 	"/>
</g>
</svg>
