<?xml version="1.0" encoding="utf-8"?>
<!-- Generator: Adobe Illustrator 23.0.6, SVG Export Plug-In . SVG Version: 6.00 Build 0)  -->
<svg version="1.1" id="Livello_2" xmlns="http://www.w3.org/2000/svg" xmlns:xlink="http://www.w3.org/1999/xlink" x="0px" y="0px"
	 viewBox="0 0 2564 2149" style="enable-background:new 0 0 2564 2149;" xml:space="preserve">
<style type="text/css">
	.st0{fill:#009688;}
	.st1{fill:#FFFFFF;}
</style>
<circle class="st0" cx="1282" cy="1237.19" r="868.81"/>
<path class="st0" d="M592.8,706.72c-12.53-12.53-37.59-37.59-37.59-37.59c-12.53-41.77,45.95-104.42,83.54-91.89
	c0,0,35.52,23.79,41.23,33.57C650.92,642.78,621.86,674.75,592.8,706.72z"/>
<path class="st0" d="M718.84,575.61l-59.21-94.44c-8.35-87.72,116.95-104.42,142.02-87.72L853.91,481L718.84,575.61z"/>
<path class="st0" d="M1524.26,76h-467.82c-66.9,0-121.13,54.23-121.13,121.13v0c0,66.9,54.23,121.13,121.13,121.13h467.82
	c66.9,0,121.13-54.23,121.13-121.13v0C1645.4,130.23,1591.16,76,1524.26,76z"/>
<circle class="st1" cx="1284.09" cy="1235.1" r="705.91"/>
<path class="st0" d="M1864.69,1239.28c10.13-370.61-371.75-584.77-580.6-580.6v580.6H1864.69z"/>
<path class="st0" d="M1483.82,289.02h-386.94c-1.57,0-2.85,1.27-2.85,2.85v102.91c0,1.57,1.27,2.85,2.85,2.85h386.94
	c1.57,0,2.85-1.27,2.85-2.85V291.87C1486.67,290.3,1485.4,289.02,1483.82,289.02z"/>
</svg>
