<?xml version="1.0" encoding="utf-8"?>
<!-- Generator: Adobe Illustrator 23.0.6, SVG Export Plug-In . SVG Version: 6.00 Build 0)  -->
<svg version="1.1" xmlns="http://www.w3.org/2000/svg" xmlns:xlink="http://www.w3.org/1999/xlink" x="0px" y="0px"
	 viewBox="0 0 2564 2149" style="enable-background:new 0 0 2564 2149;" xml:space="preserve">
<style type="text/css">
	.st0{fill:#FFFF00;stroke:#000000;stroke-width:15;stroke-miterlimit:10;}
</style>
<g id="Livello_2">
	<path class="st0" d="M2175,1854.69c-296.88-520.6-593.77-1041.19-890.65-1561.79L389.5,1856.09
		C984.67,1855.63,1579.83,1855.16,2175,1854.69z"/>
	<path class="st0" d="M2175,1854.69c-296.88-520.6-593.77-1041.19-890.65-1561.79L389.5,1856.09
		C984.67,1855.63,1579.83,1855.16,2175,1854.69z"/>
</g>
<g id="Livello_1">
	<g>
		<g>
			<path d="M1209.63,1488.47c0-34.8,28.66-65.5,64.48-65.5c35.82,0,64.48,30.7,64.48,65.5c0,34.8-28.66,64.48-64.48,64.48
				C1238.28,1552.95,1209.63,1523.27,1209.63,1488.47z M1330.4,900.99c0,37.87-11.26,135.1-24.56,278.39l-13.31,142.26h-36.85
				l-13.31-142.26c-13.31-143.29-24.56-240.52-24.56-278.39c0-44.01,21.49-62.43,56.29-62.43
				C1308.91,838.56,1330.4,856.98,1330.4,900.99z"/>
		</g>
	</g>
</g>
</svg>
